<?xml version="1.0" encoding="iso-8859-1"?>
<!-- Generator: Adobe Illustrator 19.0.0, SVG Export Plug-In . SVG Version: 6.00 Build 0)  -->
<svg version="1.1" id="Layer_1" xmlns="http://www.w3.org/2000/svg" xmlns:xlink="http://www.w3.org/1999/xlink" x="0px" y="0px"
	 viewBox="0 0 512.001 512.001" style="enable-background:new 0 0 512.001 512.001;" xml:space="preserve">
<path style="fill:#2BA5F7;" d="M461.072,72.129L461.072,72.129C404.443,15.5,312.629,15.5,256,72.129l0,0l0,0
	c-56.629-56.629-148.442-56.629-205.072,0l0,0c-56.629,56.629-56.629,148.442,0,205.072l0,0L256,482.273l205.072-205.072
	C517.701,220.572,517.701,128.759,461.072,72.129z"/>
<path style="fill:#9AD14B;" d="M204.628,393.763c-8.256,4.207-18.012,7.028-29.247,7.88h-0.011l-67.092-67.092
	c0,0,19.024-19.036,30.396-52.388c0.159-0.455,0.296-0.91,0.421-1.342c3.4-11.576-2.377-17.455-12.679-22.834
	c-17.91-9.336-49.489-17.182-70.367-50.876c-17.103-27.587-4.196-48.533,12.452-62.395c11.929-9.927,25.87-16.921,40.642-20.435
	c11.883-2.831,24.312-3.411,36.639-1.467c17.137,2.706,36.218,10.541,50.512,29.714c33.353,44.724-33.353,75.052-30.328,102.343
	c3.036,27.292,31.567,27.962,53.833,45.486C249.169,323.476,243.392,374.011,204.628,393.763z"/>
<path style="fill:#2197D8;" d="M132.053,268.7l123.938,213.568L50.929,277.205C22.614,248.89,8.456,211.785,8.456,174.669
	s14.158-74.222,42.472-102.537c27.86-27.86,64.215-42.006,100.729-42.45c-7.028,6.686-13.634,15.17-19.604,25.449
	c-17.114,29.486-25.665,68.138-25.665,106.778C106.387,200.562,114.939,239.213,132.053,268.7z"/>
<g>
	<path style="fill:#E6E6E6;" d="M296.258,442.012l-40.255,40.255l-48.795-48.784C207.208,433.484,260.518,413.857,296.258,442.012z"
		/>
	<path style="fill:#E6E6E6;" d="M332.033,32.093c26.348,24.756,11.371,84.956-74.335,74.949
		c-103.867-12.133-89.209-76.598-89.209-76.598c31.954,3.298,63.032,17.205,87.515,41.688c21.538-21.538,48.17-34.888,76.018-40.039
		C332.022,32.093,332.033,32.093,332.033,32.093z"/>
</g>
<path style="fill:#9AD14B;" d="M497.659,133.697c9.723,33.137,7.391,69.07-7.028,100.865c0,0-48.715-8.506-59.325,13.487
	c-10.621,21.981,29.771,29.156,29.771,29.156l-79.919,79.907c0,0-63.578-30.225-63.578-69.65c0-39.414,81.124-22.743,81.124-59.132
	s-111.441,0-97.795-48.511c13.646-48.522,122.812-48.522,122.812-48.522S456.721,129.478,497.659,133.697z"/>
<g>
	<path style="fill:#90BC42;" d="M126.414,257.988c-17.91-9.336-49.489-17.182-70.367-50.876
		c-17.103-27.587-4.196-48.533,12.452-62.395c11.929-9.927,25.87-16.921,40.642-20.435c-1.831,12.327-2.752,24.983-2.752,37.628
		C106.388,196.047,113.052,230.173,126.414,257.988z"/>
	<path style="fill:#90BC42;" d="M204.628,393.763c-8.256,4.207-18.012,7.028-29.247,7.88h-0.011l-67.092-67.092
		c0,0,19.024-19.036,30.396-52.388c0.159-0.455,0.296-0.91,0.421-1.342L204.628,393.763z"/>
</g>
<circle style="fill:#FFFFFF;" cx="367.447" cy="53.856" r="8.529"/>
<path style="fill:#333333;" d="M467.103,66.098L467.103,66.098C409.208,8.204,316.205,6.297,256.001,60.382
	C195.797,6.297,102.793,8.204,44.897,66.098c-59.863,59.864-59.863,157.269,0,217.133l205.072,205.072
	c1.666,1.665,3.849,2.498,6.031,2.498c2.182,0,4.366-0.832,6.031-2.498l205.072-205.072
	C526.966,223.367,526.966,125.962,467.103,66.098z M262.031,78.159c19.075-19.075,42.437-31.309,67.014-36.709
	c6.904,8.761,8.276,21.111,3.214,32.006c-9.301,20.018-36.802,29.409-73.568,25.116c-36.22-4.231-60.966-15.266-73.553-32.798
	c-6.884-9.588-8.608-19.177-8.829-25.617c26.994,4.546,52.873,17.213,73.66,38C253.3,81.49,258.7,81.491,262.031,78.159z
	 M56.959,78.159c26.606-26.606,61.555-39.909,96.504-39.909c1.937,0,3.872,0.048,5.806,0.13
	c-0.026,9.028,1.909,23.059,11.734,36.955c15.429,21.821,44.266,35.34,85.707,40.181c6.709,0.784,13.141,1.174,19.281,1.174
	c15.427,0,29.021-2.468,40.573-7.381c14.55-6.188,25.325-16.101,31.161-28.664c6.416-13.811,6.046-29.238-0.31-41.935
	c38.555-3.124,78.193,10.021,107.623,39.451c13.502,13.503,23.571,29.154,30.221,45.863c-33.442-2.584-58.876-1.402-61.774-1.252
	c-2.963,0.014-29.381,0.301-57.797,6.245c-41.842,8.751-66.399,25.068-72.988,48.495c-2.684,9.543-1.714,17.635,2.885,24.054
	c9.675,13.505,31.491,14.667,54.589,15.898c11.396,0.607,23.182,1.235,31.236,3.549c8.766,2.519,8.766,5.523,8.766,7.319
	c0,9.683-9.721,13.786-32.975,19.863c-21.451,5.606-48.149,12.583-48.149,39.269c0,34.026,38.719,60.626,57.951,71.74
	l-71.711,71.712c-31.73-20.041-71.5-11.294-85.735-7.144l-16.506-16.507c28.873-7.81,45.121-28.712,50.918-47.745
	c7.608-24.982,0.188-50.836-18.904-65.866c-8.243-6.489-17.163-10.818-25.034-14.636c-15.837-7.685-24.168-12.291-25.59-25.09
	c-0.744-6.697,7.382-16.669,15.242-26.315c16.138-19.806,38.243-46.929,13.441-80.186c-13.575-18.201-32.422-29.317-56.017-33.038
	c-29.682-4.682-60.322,3.986-84.076,23.773c-25.413,21.17-30.471,47.252-14.242,73.439c18.164,29.308,43.614,40.484,62.196,48.644
	c20.919,9.187,22.229,11.49,19.614,19.163c-6.847,20.085-16.714,34.742-22.821,42.585l-50.824-50.824
	C3.746,217.957,3.746,131.373,56.959,78.159z M141.243,257.858c-5.647-5.437-13.871-9.049-23.393-13.231
	c-17.459-7.666-39.184-17.206-54.557-42.011c-4.293-6.928-17.357-28.008,10.662-51.348c19.979-16.643,45.667-23.947,70.501-20.031
	c19.04,3.003,34.182,11.881,44.999,26.386c15.715,21.074,5.577,36.429-12.991,59.212c-10.546,12.941-20.507,25.165-18.973,38.973
	c2.528,22.749,19.085,30.783,35.097,38.553c7.44,3.61,15.134,7.344,21.929,12.693c13.525,10.647,18.682,29.29,13.137,47.494
	c-2.443,8.024-13.077,33.812-49.112,38.203l-58.604-58.604c6.916-8.567,18.696-25.437,26.809-49.237
	C150.453,274.046,148.601,264.944,141.243,257.858z M256.001,470.211l-32.339-32.339c14.773-3.04,39.022-5.342,59.168,5.509
	L256.001,470.211z M458.253,267.836c-7.745-2.039-17.313-6.095-19.715-10.792c-0.353-0.689-1.085-2.122,0.445-5.29
	c4.522-9.368,23.595-10.935,38.455-10.072C472.213,250.959,465.816,259.748,458.253,267.836z M485.298,225.216
	c-15.469-1.728-50.967-3.059-61.676,19.122c-4.31,8.929-2.527,16.061-0.271,20.472c4.181,8.176,13.373,13.394,21.485,16.565
	l-65.324,65.323c-18.704-10.1-53.4-34.042-53.4-59.234c0-12.604,13.376-17.009,35.404-22.767c20.37-5.323,45.72-11.948,45.72-36.365
	c0-8.05-3.664-18.699-21.113-23.712c-9.919-2.85-22.688-3.53-35.039-4.189c-16.364-0.872-36.729-1.958-41.63-8.799
	c-0.533-0.745-2.156-3.01-0.331-9.502c9.744-34.648,86.032-42.284,114.602-42.302c0.156,0,0.312-0.005,0.467-0.013
	c0.307-0.017,29.717-1.557,66.723,1.802C497.759,169.223,495.885,198.561,485.298,225.216z"/>
<path style="fill:#FFFFFF;" d="M476.114,211.768c-0.662,0-1.334-0.077-2.006-0.239c-4.578-1.104-7.396-5.711-6.292-10.29
	c2.081-8.635,3.137-17.577,3.137-26.574c0-30.029-11.693-58.26-32.926-79.492c-12.828-12.828-27.97-22.104-45.004-27.569
	c-4.485-1.438-6.955-6.241-5.516-10.726c1.441-4.486,6.244-6.954,10.727-5.515c19.366,6.212,37.297,17.191,51.855,31.749
	c24.454,24.453,37.923,56.968,37.923,91.553c0,10.342-1.214,20.629-3.613,30.572C483.457,209.144,479.965,211.768,476.114,211.768z
	 M220.522,82.501c-1.631,0-3.278-0.466-4.734-1.441c-18.397-12.307-39.948-18.812-62.324-18.812c-7.452,0-14.894,0.727-22.121,2.159
	c-4.62,0.917-9.109-2.087-10.024-6.707s2.087-9.109,6.706-10.024c8.317-1.649,16.876-2.486,25.439-2.486
	c25.764,0,50.594,7.501,71.806,21.692c3.915,2.619,4.966,7.916,2.346,11.831C225.973,81.171,223.273,82.501,220.522,82.501z"/>
<g>
</g>
<g>
</g>
<g>
</g>
<g>
</g>
<g>
</g>
<g>
</g>
<g>
</g>
<g>
</g>
<g>
</g>
<g>
</g>
<g>
</g>
<g>
</g>
<g>
</g>
<g>
</g>
<g>
</g>
</svg>
